<svg width="137" height="152" viewBox="0 0 137 152" fill="none" xmlns="http://www.w3.org/2000/svg">
<path d="M42.3205 58.8013L94.282 58.8013C101.595 58.8013 106.166 66.7179 102.509 73.0513L76.5285 118.051C72.872 124.385 63.7306 124.385 60.074 118.051L34.0933 73.0513C30.4367 66.7179 35.0074 58.8013 42.3205 58.8013Z" fill="#6C89EF" stroke="black"/>
<circle cx="68.5" cy="49.5" r="42" fill="#485FAF" stroke="black"/>
<g filter="url(#filter0_d)">
<circle cx="68" cy="49" r="35" fill="white"/>
<circle cx="68" cy="49" r="35" stroke="black" stroke-width="0.5"/>
</g>
<rect width="5.49487" height="30.0678" rx="2" transform="matrix(0.90172 -0.43232 0.570845 0.821057 64.0195 47.1361)" fill="black"/>
<path d="M77.5563 57.1042L68.8854 61.2614L54.6265 32.4382L54.671 24.1878L77.5563 57.1042Z" fill="black"/>
<rect width="5.49487" height="38.1042" rx="2" transform="matrix(0.90172 0.43232 -0.570845 0.821057 72.6061 37.7275)" fill="black"/>
<rect width="13.7372" height="6.56968" rx="2" transform="matrix(0.90172 0.43232 -0.570845 0.821057 71.1401 32.7094)" fill="black"/>
<path d="M77.8906 23L69.64 34.867L72.1174 36.0548L77.8906 23Z" fill="black"/>
<path d="M90.2777 28.9389L82.0271 40.8058L79.5497 39.6181L90.2777 28.9389Z" fill="black"/>
<path d="M81.6068 24.7817L72.1175 36.0548L74.5949 37.2425L81.6068 24.7817Z" fill="black"/>
<path d="M84.0842 25.9694L74.5949 37.2425L77.0723 38.4303L84.0842 25.9694Z" fill="black"/>
<path d="M86.5616 27.1572L77.0723 38.4303L79.5497 39.6181L86.5616 27.1572Z" fill="black"/>
<defs>
<filter id="filter0_d" x="28.75" y="13.75" width="78.5" height="78.5" filterUnits="userSpaceOnUse" color-interpolation-filters="sRGB">
<feFlood flood-opacity="0" result="BackgroundImageFix"/>
<feColorMatrix in="SourceAlpha" type="matrix" values="0 0 0 0 0 0 0 0 0 0 0 0 0 0 0 0 0 0 127 0"/>
<feOffset dy="4"/>
<feGaussianBlur stdDeviation="2"/>
<feColorMatrix type="matrix" values="0 0 0 0 0 0 0 0 0 0 0 0 0 0 0 0 0 0 0.25 0"/>
<feBlend mode="normal" in2="BackgroundImageFix" result="effect1_dropShadow"/>
<feBlend mode="normal" in="SourceGraphic" in2="effect1_dropShadow" result="shape"/>
</filter>
</defs>
</svg>
