<svg width="50" height="50" viewBox="0 0 50 50" fill="gold" xmlns="http://www.w3.org/2000/svg">
<path d="M14.3333 14.2941L9 15.9412L9.88889 19.2353L9 21.7059L9.88889 22.5294L10.7778 24.1765L11.6667 30.7647L15.2222 31.5882L17 34.0588H17.8889V33.2353H20.5556V34.8824H23.2222L24.1111 37.3529H26.7778L27.6667 38.1765L30.3333 37.3529L31.2222 38.1765L32.1111 37.3529L33.8889 38.1765L37.4444 39L36.5556 36.5294L41 33.2353L40.1111 29.1176L39.2222 27.4706L40.1111 25.8235L39.2222 24.1765H38.3333L41 21.7059L40.1111 16.7647L39.2222 14.2941L37.4444 13.4706H31.2222L25.8889 12.6471L26.7778 13.4706V14.2941H25.8889L24.1111 13.4706L23.2222 12.6471L22.3333 11L18.7778 11.8235L14.3333 14.2941Z" stroke="black"/>
<ellipse cx="32.5" cy="19" rx="5.5" ry="5" fill="#C4C4C4"/>
<path d="M32.5 32L27.7369 21.5H37.2631L32.5 32Z" fill="#C4C4C4"/>
<ellipse cx="32.5" cy="19" rx="2.5" ry="2" fill="gold"/>
</svg>
