<svg width="50" height="50" viewBox="0 0 50 50" fill="gold" xmlns="http://www.w3.org/2000/svg">
<path d="M25.7021 15.2889L15.4255 24.9886L12 28.0925H18.3617C18.3617 33.1363 18.3012 37.8922 18.8511 40.5081C19.3404 42.836 21.2979 43.8707 22.2766 44H30.5957C33.7277 44 34.8369 41.6721 35 40.5081V35.0763C34.5106 35.7229 32.9447 37.0162 30.5957 37.0162C28.2468 37.0162 26.3546 35.2056 25.7021 34.3003V15.2889Z" stroke="black"/>
<path d="M29.5 10.6444C29.5 12.8218 27.1642 14.7889 24 14.7889C20.8358 14.7889 18.5 12.8218 18.5 10.6444C18.5 8.46708 20.8358 6.5 24 6.5C27.1642 6.5 29.5 8.46708 29.5 10.6444Z" stroke="black"/>
</svg>
