<svg width="50" height="50" viewBox="0 0 50 50" fill="gold" xmlns="http://www.w3.org/2000/svg">
<path d="M26.3404 19.3778L20.0851 24.9934L18 26.7904H21.8723C21.8723 29.7105 21.8355 32.4639 22.1702 33.9784C22.4681 35.3261 23.6596 35.9251 24.2553 36H29.3191C31.2255 36 31.9007 34.6523 32 33.9784V30.8336C31.7021 31.208 30.7489 31.9568 29.3191 31.9568C27.8894 31.9568 26.7376 30.9085 26.3404 30.3844V19.3778Z" stroke="black"/>
<path d="M28.4565 16.6889C28.4565 17.2347 28.1571 17.7703 27.5904 18.1876C27.0239 18.6047 26.2173 18.8778 25.3043 18.8778C24.3914 18.8778 23.5848 18.6047 23.0183 18.1876C22.4516 17.7703 22.1522 17.2347 22.1522 16.6889C22.1522 16.1431 22.4516 15.6074 23.0183 15.1902C23.5848 14.7731 24.3914 14.5 25.3043 14.5C26.2173 14.5 27.0239 14.7731 27.5904 15.1902C28.1571 15.6074 28.4565 16.1431 28.4565 16.6889Z" stroke="black"/>
</svg>
