<svg width="137" height="152" viewBox="0 0 137 152" fill="none" xmlns="http://www.w3.org/2000/svg">
<path d="M34.0933 73.0513C30.4367 66.7179 35.0074 58.8013 42.3205 58.8013L94.282 58.8013C101.595 58.8013 106.166 66.7179 102.509 73.0513L76.5285 118.051C72.872 124.385 63.7306 124.385 60.074 118.051L34.0933 73.0513Z" fill="#810505" stroke="black"/>
<circle cx="68.5" cy="49.5" r="42" fill="#C50000" stroke="black"/>
<g filter="url(#filter0_d)">
<circle cx="69" cy="49" r="35" fill="white"/>
<circle cx="69" cy="49" r="35" stroke="black" stroke-width="0.5"/>
</g>
<rect width="13.2928" height="1.23266" rx="0.616329" transform="matrix(0.299364 0.954139 -0.953291 0.302052 79.301 39.5052)" fill="black"/>
<rect width="12.5583" height="1.23266" rx="0.616329" transform="matrix(0.299364 0.954139 -0.953291 0.302052 72.5209 39.8207)" fill="black"/>
<rect width="12.4073" height="1.23266" rx="0.616329" transform="matrix(0.299364 0.954139 -0.953291 0.302052 65.5661 39.9648)" fill="black"/>
<rect x="40" y="36" width="15" height="5" rx="2" fill="black"/>
<rect x="57" y="58.4483" width="35" height="4.68966" rx="2" fill="black"/>
<rect x="55.8333" y="50.2414" width="35" height="2.34483" rx="1.17241" fill="black"/>
<rect x="51.1667" y="39.6897" width="35" height="1.17241" rx="0.586207" fill="black"/>
<rect x="52.3333" y="43.2069" width="35" height="1.17241" rx="0.586207" fill="black"/>
<rect x="53.5" y="46.7241" width="35" height="1.17241" rx="0.586207" fill="black"/>
<rect x="51.1667" y="39.6897" width="35" height="1.17241" rx="0.586207" fill="black"/>
<rect width="26.7383" height="5.3162" rx="2" transform="matrix(0.299364 0.954139 -0.953291 0.302052 54.4507 36.1724)" fill="black"/>
<rect width="17.6107" height="2.50803" rx="1.25402" transform="matrix(0.299364 0.954139 -0.953291 0.302052 86.2242 35)" fill="black"/>
<ellipse cx="64.5833" cy="64.8966" rx="4.08333" ry="4.10345" fill="black"/>
<ellipse cx="83.25" cy="64.8966" rx="4.08333" ry="4.10345" fill="black"/>
<defs>
<filter id="filter0_d" x="29.75" y="13.75" width="78.5" height="78.5" filterUnits="userSpaceOnUse" color-interpolation-filters="sRGB">
<feFlood flood-opacity="0" result="BackgroundImageFix"/>
<feColorMatrix in="SourceAlpha" type="matrix" values="0 0 0 0 0 0 0 0 0 0 0 0 0 0 0 0 0 0 127 0"/>
<feOffset dy="4"/>
<feGaussianBlur stdDeviation="2"/>
<feColorMatrix type="matrix" values="0 0 0 0 0 0 0 0 0 0 0 0 0 0 0 0 0 0 0.25 0"/>
<feBlend mode="normal" in2="BackgroundImageFix" result="effect1_dropShadow"/>
<feBlend mode="normal" in="SourceGraphic" in2="effect1_dropShadow" result="shape"/>
</filter>
</defs>
</svg>
