<svg width="137" height="152" viewBox="0 0 137 152" fill="none" xmlns="http://www.w3.org/2000/svg">
<path d="M42.3205 58.8013L94.282 58.8013C101.595 58.8013 106.166 66.7179 102.509 73.0513L76.5285 118.051C72.872 124.385 63.7306 124.385 60.074 118.051L34.0933 73.0513C30.4367 66.7179 35.0074 58.8013 42.3205 58.8013Z" fill="#9E9E9E" stroke="black"/>
<circle cx="68.5" cy="49.5" r="42" fill="#C4C4C4" stroke="black"/>
<g filter="url(#filter0_d)">
<circle cx="68" cy="49" r="35" fill="white"/>
<circle cx="68" cy="49" r="35" stroke="black" stroke-width="0.5"/>
</g>
<rect x="47" y="36" width="4" height="25" fill="black"/>
<rect x="84" y="36" width="4" height="25" fill="black"/>
<rect x="39" y="40.5" width="25" height="3" transform="rotate(-30 39 40.5)" fill="black"/>
<rect x="39" y="40.5" width="25" height="3" transform="rotate(-30 39 40.5)" fill="black"/>
<rect x="94.6506" y="43.0981" width="25" height="3" transform="rotate(-150 94.6506 43.0981)" fill="black"/>
<rect x="53" y="42" width="1" height="19" fill="black"/>
<rect x="81" y="52" width="1" height="9" fill="black"/>
<rect x="54" y="52" width="27" height="2" fill="black"/>
<circle cx="58" cy="47" r="3" fill="black"/>
<path d="M60 46H75C77.2091 46 79 47.7909 79 50V51H64C61.7909 51 60 49.2091 60 47V46Z" fill="black"/>
<rect x="62" y="59" width="2" height="16" fill="black"/>
<rect x="71" y="59" width="2" height="16" fill="black"/>
<rect x="62" y="66" width="10" height="1" fill="black"/>
<defs>
<filter id="filter0_d" x="28.75" y="13.75" width="78.5" height="78.5" filterUnits="userSpaceOnUse" color-interpolation-filters="sRGB">
<feFlood flood-opacity="0" result="BackgroundImageFix"/>
<feColorMatrix in="SourceAlpha" type="matrix" values="0 0 0 0 0 0 0 0 0 0 0 0 0 0 0 0 0 0 127 0"/>
<feOffset dy="4"/>
<feGaussianBlur stdDeviation="2"/>
<feColorMatrix type="matrix" values="0 0 0 0 0 0 0 0 0 0 0 0 0 0 0 0 0 0 0.25 0"/>
<feBlend mode="normal" in2="BackgroundImageFix" result="effect1_dropShadow"/>
<feBlend mode="normal" in="SourceGraphic" in2="effect1_dropShadow" result="shape"/>
</filter>
</defs>
</svg>
